<svg xmlns="http://www.w3.org/2000/svg" viewBox="0 0 440 420" width="440" height="420" preserveAspectRatio="xMidYMax slice" aria-hidden="true"><rect width="440" height="420" fill="#DCEAF5"/><path d="M79 123.4 C95.8 92.3 87.6 99 120 73.8 C152.4 48.5 144.8 50.9 187 39.2 C229.1 27.5 218.9 29.7 260.4 34.9 C301.9 40.1 292.2 37 325.2 56.5 C358.2 75.9 351.1 67.3 370.6 99.7 C390 132.1 387.4 122.4 390 164.5 C392.6 206.6 393.5 198 379.2 240.1 C364.9 282.2 363.9 271.8 342.5 304.9 C321.1 337.9 334.5 326.3 307.9 350.2 C281.4 374.2 290.2 373.8 253.9 384.8 C217.6 395.8 223.2 393.4 187 387 C150.7 380.5 162.1 386.5 133 363.2 C103.8 339.9 109.2 348.1 89.8 309.2 C70.3 270.3 75.9 273.1 68.2 233.6 C60.4 194.1 60.6 210.5 63.8 177.4 C67.1 144.4 62.1 154.5 79 123.4Z" fill="#CCE0F0" /><path d="M79 123.4 C95.8 92.3 87.6 99 120 73.8 C152.4 48.5 144.8 50.9 187 39.2 C229.1 27.5 218.9 29.7 260.4 34.9 C301.9 40.1 292.2 37 325.2 56.5 C358.2 75.9 351.1 67.3 370.6 99.7 C390 132.1 387.4 122.4 390 164.5 C392.6 206.6 393.5 198 379.2 240.1 C364.9 282.2 363.9 271.8 342.5 304.9 C321.1 337.9 334.5 326.3 307.9 350.2 C281.4 374.2 290.2 373.8 253.9 384.8 C217.6 395.8 223.2 393.4 187 387 C150.7 380.5 162.1 386.5 133 363.2 C103.8 339.9 109.2 348.1 89.8 309.2 C70.3 270.3 75.9 273.1 68.2 233.6 C60.4 194.1 60.6 210.5 63.8 177.4 C67.1 144.4 62.1 154.5 79 123.4Z" fill="none" stroke="#B7D0E3" stroke-width="1.2" stroke-linecap="round" stroke-linejoin="round" vector-effect="non-scaling-stroke" opacity="0.8" /><path d="M90 130 C105.6 101.2 98 107.4 128 84 C158 60.6 151 62.8 190 52 C229 41.2 219.6 43.2 258 48 C296.4 52.8 287.4 50 318 68 C348.6 86 342 78 360 108 C378 138 375.6 129 378 168 C380.4 207 381.2 199 368 238 C354.8 277 353.8 267.4 334 298 C314.2 328.6 326.6 317.8 302 340 C277.4 362.2 285.6 361.8 252 372 C218.4 382.2 223.6 380 190 374 C156.4 368 167 373.6 140 352 C113 330.4 118 338 100 302 C82 266 87.2 268.6 80 232 C72.8 195.4 73 210.6 76 180 C79 149.4 74.4 158.8 90 130Z" fill="#E8DFC4" /><path d="M94.8 132.9 C109.9 105.1 102.5 111.1 131.5 88.5 C160.4 65.9 153.7 68 191.3 57.6 C229 47.2 219.9 49.1 256.9 53.7 C294 58.4 285.3 55.7 314.9 73 C344.4 90.4 338 82.7 355.4 111.6 C372.8 140.6 370.4 131.9 372.8 169.5 C375.1 207.2 375.8 199.5 363.1 237.1 C350.4 274.7 349.4 265.5 330.3 295 C311.2 324.5 323.1 314.1 299.4 335.5 C275.7 356.9 283.6 356.6 251.2 366.4 C218.7 376.2 223.8 374.1 191.3 368.3 C158.9 362.5 169.1 367.9 143.1 347.1 C117 326.3 121.9 333.6 104.5 298.9 C87.1 264.1 92.1 266.6 85.2 231.3 C78.2 196 78.4 210.6 81.3 181.1 C84.2 151.6 79.8 160.7 94.8 132.9Z" fill="#E6EFD9" stroke="#9DBE97" stroke-width="1.4" stroke-linecap="round" stroke-linejoin="round" vector-effect="non-scaling-stroke" /><path d="M54 29.9q6.0 -3 12 0t12 0" fill="none" stroke="#B7D0E3" stroke-width="1.8" stroke-linecap="round" stroke-linejoin="round" vector-effect="non-scaling-stroke" opacity="0.9" /><path d="M111.3 39.9q6.0 -3 12 0t12 0" fill="none" stroke="#B7D0E3" stroke-width="1.8" stroke-linecap="round" stroke-linejoin="round" vector-effect="non-scaling-stroke" opacity="0.9" /><path d="M97.5 32.4q6.0 -3 12 0t12 0" fill="none" stroke="#B7D0E3" stroke-width="1.8" stroke-linecap="round" stroke-linejoin="round" vector-effect="non-scaling-stroke" opacity="0.9" /><path d="M366.2 30.1q6.0 -3 12 0t12 0" fill="none" stroke="#B7D0E3" stroke-width="1.8" stroke-linecap="round" stroke-linejoin="round" vector-effect="non-scaling-stroke" opacity="0.9" /><path d="M245.6 41q6.0 -3 12 0t12 0" fill="none" stroke="#B7D0E3" stroke-width="1.8" stroke-linecap="round" stroke-linejoin="round" vector-effect="non-scaling-stroke" opacity="0.9" /><path d="M137.3 29.3q6.0 -3 12 0t12 0" fill="none" stroke="#B7D0E3" stroke-width="1.8" stroke-linecap="round" stroke-linejoin="round" vector-effect="non-scaling-stroke" opacity="0.9" /><path d="M39.5 40.9q6.0 -3 12 0t12 0" fill="none" stroke="#B7D0E3" stroke-width="1.8" stroke-linecap="round" stroke-linejoin="round" vector-effect="non-scaling-stroke" opacity="0.9" /><path d="M182.8 29.6q6.0 -3 12 0t12 0" fill="none" stroke="#B7D0E3" stroke-width="1.8" stroke-linecap="round" stroke-linejoin="round" vector-effect="non-scaling-stroke" opacity="0.9" /><path d="M22.9 42.1q6.0 -3 12 0t12 0" fill="none" stroke="#B7D0E3" stroke-width="1.8" stroke-linecap="round" stroke-linejoin="round" vector-effect="non-scaling-stroke" opacity="0.9" /><path d="M335.5 43.8q6.0 -3 12 0t12 0" fill="none" stroke="#B7D0E3" stroke-width="1.8" stroke-linecap="round" stroke-linejoin="round" vector-effect="non-scaling-stroke" opacity="0.9" /><path d="M16.1 395q6.0 -3 12 0t12 0" fill="none" stroke="#B7D0E3" stroke-width="1.8" stroke-linecap="round" stroke-linejoin="round" vector-effect="non-scaling-stroke" opacity="0.9" /><path d="M148.1 394.6q6.0 -3 12 0t12 0" fill="none" stroke="#B7D0E3" stroke-width="1.8" stroke-linecap="round" stroke-linejoin="round" vector-effect="non-scaling-stroke" opacity="0.9" /><path d="M401.2 394.5q6.0 -3 12 0t12 0" fill="none" stroke="#B7D0E3" stroke-width="1.8" stroke-linecap="round" stroke-linejoin="round" vector-effect="non-scaling-stroke" opacity="0.9" /><path d="M79.9 391.9q6.0 -3 12 0t12 0" fill="none" stroke="#B7D0E3" stroke-width="1.8" stroke-linecap="round" stroke-linejoin="round" vector-effect="non-scaling-stroke" opacity="0.9" /><path d="M9.9 400q6.0 -3 12 0t12 0" fill="none" stroke="#B7D0E3" stroke-width="1.8" stroke-linecap="round" stroke-linejoin="round" vector-effect="non-scaling-stroke" opacity="0.9" /><path d="M219.6 394.6q6.0 -3 12 0t12 0" fill="none" stroke="#B7D0E3" stroke-width="1.8" stroke-linecap="round" stroke-linejoin="round" vector-effect="non-scaling-stroke" opacity="0.9" /><path d="M228.9 399.4q6.0 -3 12 0t12 0" fill="none" stroke="#B7D0E3" stroke-width="1.8" stroke-linecap="round" stroke-linejoin="round" vector-effect="non-scaling-stroke" opacity="0.9" /><path d="M386.8 392.2q6.0 -3 12 0t12 0" fill="none" stroke="#B7D0E3" stroke-width="1.8" stroke-linecap="round" stroke-linejoin="round" vector-effect="non-scaling-stroke" opacity="0.9" /><path d="M363.2 389.5q6.0 -3 12 0t12 0" fill="none" stroke="#B7D0E3" stroke-width="1.8" stroke-linecap="round" stroke-linejoin="round" vector-effect="non-scaling-stroke" opacity="0.9" /><path d="M380.9 294.1q6.0 -3 12 0t12 0" fill="none" stroke="#B7D0E3" stroke-width="1.8" stroke-linecap="round" stroke-linejoin="round" vector-effect="non-scaling-stroke" opacity="0.9" /><path d="M412.1 302.6q6.0 -3 12 0t12 0" fill="none" stroke="#B7D0E3" stroke-width="1.8" stroke-linecap="round" stroke-linejoin="round" vector-effect="non-scaling-stroke" opacity="0.9" /><path d="M410.7 296.6q6.0 -3 12 0t12 0" fill="none" stroke="#B7D0E3" stroke-width="1.8" stroke-linecap="round" stroke-linejoin="round" vector-effect="non-scaling-stroke" opacity="0.9" /><path d="M429.8 292q6.0 -3 12 0t12 0" fill="none" stroke="#B7D0E3" stroke-width="1.8" stroke-linecap="round" stroke-linejoin="round" vector-effect="non-scaling-stroke" opacity="0.9" /><path d="M416.8 304.3q6.0 -3 12 0t12 0" fill="none" stroke="#B7D0E3" stroke-width="1.8" stroke-linecap="round" stroke-linejoin="round" vector-effect="non-scaling-stroke" opacity="0.9" /><path d="M30.2 282.1q6.0 -3 12 0t12 0" fill="none" stroke="#B7D0E3" stroke-width="1.8" stroke-linecap="round" stroke-linejoin="round" vector-effect="non-scaling-stroke" opacity="0.9" /><path d="M20.9 278.6q6.0 -3 12 0t12 0" fill="none" stroke="#B7D0E3" stroke-width="1.8" stroke-linecap="round" stroke-linejoin="round" vector-effect="non-scaling-stroke" opacity="0.9" /><path d="M48.1 278.9q6.0 -3 12 0t12 0" fill="none" stroke="#B7D0E3" stroke-width="1.8" stroke-linecap="round" stroke-linejoin="round" vector-effect="non-scaling-stroke" opacity="0.9" /><path d="M43.4 277q6.0 -3 12 0t12 0" fill="none" stroke="#B7D0E3" stroke-width="1.8" stroke-linecap="round" stroke-linejoin="round" vector-effect="non-scaling-stroke" opacity="0.9" /><path d="M28.1 285.7q6.0 -3 12 0t12 0" fill="none" stroke="#B7D0E3" stroke-width="1.8" stroke-linecap="round" stroke-linejoin="round" vector-effect="non-scaling-stroke" opacity="0.9" /><path d="M37 92 L55 92 L52.3 96 L39.7 96Z" fill="#0D2B26" /><path d="M46 92V79.4" fill="none" stroke="#0D2B26" stroke-width="1.6" stroke-linecap="round" stroke-linejoin="round" vector-effect="non-scaling-stroke" /><path d="M46.7 79.8 L54.5 91.1 L46.7 91.1Z" fill="#F26B54" /><path d="M396 356 L412 356 L409.6 359.6 L398.4 359.6Z" fill="#0D2B26" /><path d="M404 356V344.8" fill="none" stroke="#0D2B26" stroke-width="1.6" stroke-linecap="round" stroke-linejoin="round" vector-effect="non-scaling-stroke" /><path d="M404.6 345.2 L411.6 355.2 L404.6 355.2Z" fill="#F4C24D" /><circle cx="400" cy="60" r="20" fill="#F6F4EE" stroke="#B7D0E3" stroke-width="1.4" opacity="0.9"/><path d="M400 42 L405 60 L400 78 L395 60Z" fill="#F26B54" /><path d="M382 60 L400 55 L418 60 L400 65Z" fill="#0D2B26" opacity="0.7" /><circle cx="400" cy="60" r="2.4" fill="#F6F4EE"/><path d="M104 150h60" fill="none" stroke="#B6D3AC" stroke-width="2.4" stroke-linecap="round" stroke-linejoin="round" vector-effect="non-scaling-stroke" opacity="0.9" /><path d="M106 162h57" fill="none" stroke="#B6D3AC" stroke-width="2.4" stroke-linecap="round" stroke-linejoin="round" vector-effect="non-scaling-stroke" opacity="0.9" /><path d="M108 174h54" fill="none" stroke="#B6D3AC" stroke-width="2.4" stroke-linecap="round" stroke-linejoin="round" vector-effect="non-scaling-stroke" opacity="0.9" /><path d="M110 232h51" fill="none" stroke="#B6D3AC" stroke-width="2.4" stroke-linecap="round" stroke-linejoin="round" vector-effect="non-scaling-stroke" opacity="0.9" /><path d="M112 244h48" fill="none" stroke="#B6D3AC" stroke-width="2.4" stroke-linecap="round" stroke-linejoin="round" vector-effect="non-scaling-stroke" opacity="0.9" /><path d="M190 150h34" fill="none" stroke="#B6D3AC" stroke-width="2.4" stroke-linecap="round" stroke-linejoin="round" vector-effect="non-scaling-stroke" opacity="0.9" /><path d="M187 162h36" fill="none" stroke="#B6D3AC" stroke-width="2.4" stroke-linecap="round" stroke-linejoin="round" vector-effect="non-scaling-stroke" opacity="0.9" /><path d="M184 174h38" fill="none" stroke="#B6D3AC" stroke-width="2.4" stroke-linecap="round" stroke-linejoin="round" vector-effect="non-scaling-stroke" opacity="0.9" /><path d="M112 214 L112 204 L120 198 L128 204 L128 214Z" fill="#F26B54" /><path d="M108 205 L120 195 L132 205Z" fill="#0D2B26" opacity="0.75" /><rect x="225" y="116.8" width="1.9" height="3.6" rx="1.5" fill="#8C6A4A"/><path d="M226.7 101.8 L229.2 110.8 L223.4 109.9Z" fill="#2A8A79" /><path d="M225.5 106.1 L231.2 113.4 L221.6 114.1Z" fill="#2A8A79" /><rect x="245" y="106" width="1.9" height="4.4" rx="1.5" fill="#8C6A4A"/><path d="M245.5 88.1 L249.7 97.3 L243.1 97.9Z" fill="#0E5F52" /><path d="M245.8 92.6 L251.2 102.7 L241.4 102.5Z" fill="#0E5F52" /><rect x="267" y="111.3" width="1.9" height="5.2" rx="1.5" fill="#8C6A4A"/><path d="M267.8 89.7 L271.7 101.6 L264.9 101.5Z" fill="#B6D3AC" /><path d="M267.5 95.8 L272.7 107.5 L263.2 106.7Z" fill="#B6D3AC" /><rect x="289" y="108.8" width="1.9" height="3.6" rx="1.5" fill="#8C6A4A"/><path d="M289.5 94.1 L293.2 102.2 L286.7 101.4Z" fill="#2A8A79" /><path d="M289.3 98.6 L295.2 105.8 L285.5 106.2Z" fill="#2A8A79" /><rect x="307" y="122" width="1.9" height="4.4" rx="1.5" fill="#8C6A4A"/><path d="M307.3 104.7 L311.7 113.7 L305 114Z" fill="#0E5F52" /><path d="M307.5 109 L312.7 118.7 L302.5 118.3Z" fill="#0E5F52" /><rect x="235" y="135.3" width="1.9" height="5.2" rx="1.5" fill="#8C6A4A"/><path d="M235.5 114.1 L239.2 125.7 L232 125.3Z" fill="#B6D3AC" /><path d="M236.4 119 L241.1 131.7 L230.6 131.4Z" fill="#B6D3AC" /><rect x="297" y="142.8" width="1.9" height="3.6" rx="1.5" fill="#8C6A4A"/><path d="M298.4 127.3 L301.6 136.4 L294.1 136.1Z" fill="#2A8A79" /><path d="M298.3 132.7 L302.2 139.8 L293.8 140.5Z" fill="#2A8A79" /><rect x="317" y="146" width="1.9" height="4.4" rx="1.5" fill="#8C6A4A"/><path d="M318.3 128.8 L320.7 137.6 L315.3 138.4Z" fill="#0E5F52" /><path d="M317.4 133.5 L323.1 142.7 L313.9 143.4Z" fill="#0E5F52" /><rect x="223" y="191.3" width="1.9" height="5.2" rx="1.5" fill="#8C6A4A"/><path d="M223.4 170.6 L227.6 181.7 L221.4 182.4Z" fill="#B6D3AC" /><path d="M224.2 175.4 L228.3 187.7 L218.8 186.9Z" fill="#B6D3AC" /><rect x="303" y="194.8" width="1.9" height="3.6" rx="1.5" fill="#8C6A4A"/><path d="M304.2 179.7 L306.8 188.3 L300.3 187.6Z" fill="#2A8A79" /><path d="M303.9 183.7 L309.6 191.8 L298.7 192.8Z" fill="#2A8A79" /><rect x="287" y="202" width="1.9" height="4.4" rx="1.5" fill="#8C6A4A"/><path d="M287.9 183.7 L292.1 193.7 L284.2 194.7Z" fill="#0E5F52" /><path d="M288.1 189.6 L293 199.5 L282.9 198Z" fill="#0E5F52" /><rect x="241" y="201.3" width="1.9" height="5.2" rx="1.5" fill="#8C6A4A"/><path d="M242.1 180.7 L245.5 192.4 L238.4 191Z" fill="#B6D3AC" /><path d="M242.5 185.3 L247.2 197.6 L237.8 197.5Z" fill="#B6D3AC" /><path d="M322 192l18 36 20-40" fill="none" stroke="#9DBE97" stroke-width="2.4" stroke-linecap="round" stroke-linejoin="round" vector-effect="non-scaling-stroke" /><path d="M340 232q6 20-4 36t2 30" fill="none" stroke="#3A6FD8" stroke-width="2.6" stroke-linecap="round" stroke-linejoin="round" vector-effect="non-scaling-stroke" opacity="0.8" /><path d="M300 268q20-6 36 4" fill="none" stroke="#9DBE97" stroke-width="1.6" stroke-linecap="round" stroke-linejoin="round" vector-effect="non-scaling-stroke" opacity="0.7" /><path d="M79.1 297.1 L95.3 266.3 L103.6 250.9 L113.9 268.7 L129.1 297.2Z" fill="#B6D3AC" /><path d="M99.5 262.6 L104 252 L109.5 263.4 L106 265.2 L102.5 262.6Z" fill="#FFFFFF" /><path d="M104.8 279.3 L122.6 239.6 L132.8 222.2 L143.9 245.1 L159.3 279Z" fill="#9DBE97" /><path d="M127 235.9 L132 222 L138.2 237.1 L134.2 239.4 L130.3 235.9Z" fill="#FFFFFF" /><path d="M152.5 292.7 L168.4 263.9 L175.9 253.1 L186 266.2 L199.6 292Z" fill="#B6D3AC" /><path d="M171.9 261.6 L176 252 L181.1 262.4 L177.8 264 L174.6 261.6Z" fill="#FFFFFF" /><path d="M87.4 356.2 L100.1 335.2 L108.2 324.9 L115.2 338.4 L128.2 355.1Z" fill="#B6D3AC" /><path d="M157.4 355 L169.9 336.9 L175.5 329.6 L182.1 340 L193.6 356.8Z" fill="#B6D3AC" /><path d="M226 322a26 20 0 0 1 52 0z" fill="#9DBE97" /><path d="M236 322a16 12 0 0 1 32 0z" fill="#0D2B26" /><circle cx="214" cy="364" r="4" fill="#CFC6AE"/><circle cx="292" cy="362" r="6" fill="#CFC6AE"/><circle cx="268" cy="376" r="4" fill="#CFC6AE"/><path d="M296 320 L312 304 L352 304 L368 320Z" fill="#B6D3AC" opacity="0.85" /><path d="M312 304h40" fill="none" stroke="#9DBE97" stroke-width="1.6" stroke-linecap="round" stroke-linejoin="round" vector-effect="non-scaling-stroke" /><ellipse cx="306" cy="332" rx="28" ry="14.0" fill="#E3DFD3" opacity="0.85"/><ellipse cx="346" cy="326" rx="30" ry="15.0" fill="#E3DFD3" opacity="0.85"/><ellipse cx="334" cy="372" rx="26" ry="13.0" fill="#E3DFD3" opacity="0.85"/><ellipse cx="362" cy="356" rx="22" ry="11.0" fill="#E3DFD3" opacity="0.85"/><path d="M190 244 L190 236 L196 230 L202 236 L202 244Z" fill="#F4C24D" /><path d="M202 238 L202 230 L208 224 L214 230 L214 238Z" fill="#F26B54" /><path d="M180 254 L180 246 L186 240 L192 246 L192 254Z" fill="#F4C24D" /><ellipse cx="232" cy="262" rx="20" ry="11" fill="#CCE0F0" stroke="#B7D0E3" stroke-width="1.2"/><path d="M98 250q20-10 40 0M94 262q24-10 48 0" fill="none" stroke="#9DBE97" stroke-width="1.4" stroke-linecap="round" stroke-linejoin="round" vector-effect="non-scaling-stroke" opacity="0.6" /><rect x="119.2" y="125.5" width="1.6" height="2.8" rx="1.5" fill="#8C6A4A"/><path d="M119.6 114 L122.9 120.8 L116.6 120.7Z" fill="#2A8A79" /><path d="M119.7 117.3 L123.8 124 L115.8 123.8Z" fill="#2A8A79" /><rect x="145.2" y="108.8" width="1.6" height="3.6" rx="1.5" fill="#8C6A4A"/><path d="M145.7 94.2 L148.5 102.7 L143.1 102.5Z" fill="#B6D3AC" /><path d="M145.7 98.7 L150 105.8 L142.8 105.9Z" fill="#B6D3AC" /><rect x="167.2" y="121.5" width="1.6" height="2.8" rx="1.5" fill="#8C6A4A"/><path d="M167.7 110.8 L170.7 116 L166 116.2Z" fill="#2A8A79" /><path d="M167.3 112.6 L171.3 119.2 L163.3 120Z" fill="#2A8A79" /><rect x="329.2" y="166.8" width="1.6" height="3.6" rx="1.5" fill="#8C6A4A"/><path d="M329.3 151.5 L332.1 159.9 L326.5 160.7Z" fill="#B6D3AC" /><path d="M329.5 155.2 L333.5 164.2 L325.6 163.8Z" fill="#B6D3AC" /><rect x="349.2" y="181.5" width="1.6" height="2.8" rx="1.5" fill="#8C6A4A"/><path d="M349.5 169.3 L352.3 176.4 L346.9 176Z" fill="#2A8A79" /><path d="M350.8 172.7 L354.2 178.7 L345.8 179.4Z" fill="#2A8A79" /><rect x="365.2" y="202.8" width="1.6" height="3.6" rx="1.5" fill="#8C6A4A"/><path d="M366.8 187.6 L368.9 195.4 L363.1 196.1Z" fill="#B6D3AC" /><path d="M365.8 191.4 L369.2 199.5 L362.4 200.1Z" fill="#B6D3AC" /><path d="M161 212q30-20 70-30M266 190q40 10 70 30M161 212q-10 50-20 80M251 320q-40-30-60-100M330 326q-30-20-60-100" fill="none" stroke="#D8C9A6" stroke-width="2.4" stroke-linecap="round" stroke-linejoin="round" vector-effect="non-scaling-stroke" opacity="0.9" stroke-dasharray="5 6"/></svg>
