<svg xmlns="http://www.w3.org/2000/svg" viewBox="0 0 440 420" width="440" height="420" preserveAspectRatio="xMidYMax slice" aria-hidden="true"><rect width="440" height="420" fill="#DCEAF5"/><path d="M79 123.4 C95.8 92.3 87.6 99 120 73.8 C152.4 48.5 144.8 50.9 187 39.2 C229.1 27.5 218.9 29.7 260.4 34.9 C301.9 40.1 292.2 37 325.2 56.5 C358.2 75.9 351.1 67.3 370.6 99.7 C390 132.1 387.4 122.4 390 164.5 C392.6 206.6 393.5 198 379.2 240.1 C364.9 282.2 363.9 271.8 342.5 304.9 C321.1 337.9 334.5 326.3 307.9 350.2 C281.4 374.2 290.2 373.8 253.9 384.8 C217.6 395.8 223.2 393.4 187 387 C150.7 380.5 162.1 386.5 133 363.2 C103.8 339.9 109.2 348.1 89.8 309.2 C70.3 270.3 75.9 273.1 68.2 233.6 C60.4 194.1 60.6 210.5 63.8 177.4 C67.1 144.4 62.1 154.5 79 123.4Z" fill="#CCE0F0" /><path d="M79 123.4 C95.8 92.3 87.6 99 120 73.8 C152.4 48.5 144.8 50.9 187 39.2 C229.1 27.5 218.9 29.7 260.4 34.9 C301.9 40.1 292.2 37 325.2 56.5 C358.2 75.9 351.1 67.3 370.6 99.7 C390 132.1 387.4 122.4 390 164.5 C392.6 206.6 393.5 198 379.2 240.1 C364.9 282.2 363.9 271.8 342.5 304.9 C321.1 337.9 334.5 326.3 307.9 350.2 C281.4 374.2 290.2 373.8 253.9 384.8 C217.6 395.8 223.2 393.4 187 387 C150.7 380.5 162.1 386.5 133 363.2 C103.8 339.9 109.2 348.1 89.8 309.2 C70.3 270.3 75.9 273.1 68.2 233.6 C60.4 194.1 60.6 210.5 63.8 177.4 C67.1 144.4 62.1 154.5 79 123.4Z" fill="none" stroke="#B7D0E3" stroke-width="1.2" stroke-linecap="round" stroke-linejoin="round" vector-effect="non-scaling-stroke" opacity="0.8" /><path d="M90 130 C105.6 101.2 98 107.4 128 84 C158 60.6 151 62.8 190 52 C229 41.2 219.6 43.2 258 48 C296.4 52.8 287.4 50 318 68 C348.6 86 342 78 360 108 C378 138 375.6 129 378 168 C380.4 207 381.2 199 368 238 C354.8 277 353.8 267.4 334 298 C314.2 328.6 326.6 317.8 302 340 C277.4 362.2 285.6 361.8 252 372 C218.4 382.2 223.6 380 190 374 C156.4 368 167 373.6 140 352 C113 330.4 118 338 100 302 C82 266 87.2 268.6 80 232 C72.8 195.4 73 210.6 76 180 C79 149.4 74.4 158.8 90 130Z" fill="#E8DFC4" /><path d="M94.8 132.9 C109.9 105.1 102.5 111.1 131.5 88.5 C160.4 65.9 153.7 68 191.3 57.6 C229 47.2 219.9 49.1 256.9 53.7 C294 58.4 285.3 55.7 314.9 73 C344.4 90.4 338 82.7 355.4 111.6 C372.8 140.6 370.4 131.9 372.8 169.5 C375.1 207.2 375.8 199.5 363.1 237.1 C350.4 274.7 349.4 265.5 330.3 295 C311.2 324.5 323.1 314.1 299.4 335.5 C275.7 356.9 283.6 356.6 251.2 366.4 C218.7 376.2 223.8 374.1 191.3 368.3 C158.9 362.5 169.1 367.9 143.1 347.1 C117 326.3 121.9 333.6 104.5 298.9 C87.1 264.1 92.1 266.6 85.2 231.3 C78.2 196 78.4 210.6 81.3 181.1 C84.2 151.6 79.8 160.7 94.8 132.9Z" fill="#E6EFD9" stroke="#9DBE97" stroke-width="1.4" stroke-linecap="round" stroke-linejoin="round" vector-effect="non-scaling-stroke" /><path d="M54 29.9q6.0 -3 12 0t12 0" fill="none" stroke="#B7D0E3" stroke-width="1.8" stroke-linecap="round" stroke-linejoin="round" vector-effect="non-scaling-stroke" opacity="0.9" /><path d="M111.3 39.9q6.0 -3 12 0t12 0" fill="none" stroke="#B7D0E3" stroke-width="1.8" stroke-linecap="round" stroke-linejoin="round" vector-effect="non-scaling-stroke" opacity="0.9" /><path d="M97.5 32.4q6.0 -3 12 0t12 0" fill="none" stroke="#B7D0E3" stroke-width="1.8" stroke-linecap="round" stroke-linejoin="round" vector-effect="non-scaling-stroke" opacity="0.9" /><path d="M366.2 30.1q6.0 -3 12 0t12 0" fill="none" stroke="#B7D0E3" stroke-width="1.8" stroke-linecap="round" stroke-linejoin="round" vector-effect="non-scaling-stroke" opacity="0.9" /><path d="M245.6 41q6.0 -3 12 0t12 0" fill="none" stroke="#B7D0E3" stroke-width="1.8" stroke-linecap="round" stroke-linejoin="round" vector-effect="non-scaling-stroke" opacity="0.9" /><path d="M137.3 29.3q6.0 -3 12 0t12 0" fill="none" stroke="#B7D0E3" stroke-width="1.8" stroke-linecap="round" stroke-linejoin="round" vector-effect="non-scaling-stroke" opacity="0.9" /><path d="M39.5 40.9q6.0 -3 12 0t12 0" fill="none" stroke="#B7D0E3" stroke-width="1.8" stroke-linecap="round" stroke-linejoin="round" vector-effect="non-scaling-stroke" opacity="0.9" /><path d="M182.8 29.6q6.0 -3 12 0t12 0" fill="none" stroke="#B7D0E3" stroke-width="1.8" stroke-linecap="round" stroke-linejoin="round" vector-effect="non-scaling-stroke" opacity="0.9" /><path d="M22.9 42.1q6.0 -3 12 0t12 0" fill="none" stroke="#B7D0E3" stroke-width="1.8" stroke-linecap="round" stroke-linejoin="round" vector-effect="non-scaling-stroke" opacity="0.9" /><path d="M335.5 43.8q6.0 -3 12 0t12 0" fill="none" stroke="#B7D0E3" stroke-width="1.8" stroke-linecap="round" stroke-linejoin="round" vector-effect="non-scaling-stroke" opacity="0.9" /><path d="M16.1 395q6.0 -3 12 0t12 0" fill="none" stroke="#B7D0E3" stroke-width="1.8" stroke-linecap="round" stroke-linejoin="round" vector-effect="non-scaling-stroke" opacity="0.9" /><path d="M148.1 394.6q6.0 -3 12 0t12 0" fill="none" stroke="#B7D0E3" stroke-width="1.8" stroke-linecap="round" stroke-linejoin="round" vector-effect="non-scaling-stroke" opacity="0.9" /><path d="M401.2 394.5q6.0 -3 12 0t12 0" fill="none" stroke="#B7D0E3" stroke-width="1.8" stroke-linecap="round" stroke-linejoin="round" vector-effect="non-scaling-stroke" opacity="0.9" /><path d="M79.9 391.9q6.0 -3 12 0t12 0" fill="none" stroke="#B7D0E3" stroke-width="1.8" stroke-linecap="round" stroke-linejoin="round" vector-effect="non-scaling-stroke" opacity="0.9" /><path d="M9.9 400q6.0 -3 12 0t12 0" fill="none" stroke="#B7D0E3" stroke-width="1.8" stroke-linecap="round" stroke-linejoin="round" vector-effect="non-scaling-stroke" opacity="0.9" /><path d="M219.6 394.6q6.0 -3 12 0t12 0" fill="none" stroke="#B7D0E3" stroke-width="1.8" stroke-linecap="round" stroke-linejoin="round" vector-effect="non-scaling-stroke" opacity="0.9" /><path d="M228.9 399.4q6.0 -3 12 0t12 0" fill="none" stroke="#B7D0E3" stroke-width="1.8" stroke-linecap="round" stroke-linejoin="round" vector-effect="non-scaling-stroke" opacity="0.9" /><path d="M386.8 392.2q6.0 -3 12 0t12 0" fill="none" stroke="#B7D0E3" stroke-width="1.8" stroke-linecap="round" stroke-linejoin="round" vector-effect="non-scaling-stroke" opacity="0.9" /><path d="M363.2 389.5q6.0 -3 12 0t12 0" fill="none" stroke="#B7D0E3" stroke-width="1.8" stroke-linecap="round" stroke-linejoin="round" vector-effect="non-scaling-stroke" opacity="0.9" /><path d="M380.9 294.1q6.0 -3 12 0t12 0" fill="none" stroke="#B7D0E3" stroke-width="1.8" stroke-linecap="round" stroke-linejoin="round" vector-effect="non-scaling-stroke" opacity="0.9" /><path d="M412.1 302.6q6.0 -3 12 0t12 0" fill="none" stroke="#B7D0E3" stroke-width="1.8" stroke-linecap="round" stroke-linejoin="round" vector-effect="non-scaling-stroke" opacity="0.9" /><path d="M410.7 296.6q6.0 -3 12 0t12 0" fill="none" stroke="#B7D0E3" stroke-width="1.8" stroke-linecap="round" stroke-linejoin="round" vector-effect="non-scaling-stroke" opacity="0.9" /><path d="M429.8 292q6.0 -3 12 0t12 0" fill="none" stroke="#B7D0E3" stroke-width="1.8" stroke-linecap="round" stroke-linejoin="round" vector-effect="non-scaling-stroke" opacity="0.9" /><path d="M416.8 304.3q6.0 -3 12 0t12 0" fill="none" stroke="#B7D0E3" stroke-width="1.8" stroke-linecap="round" stroke-linejoin="round" vector-effect="non-scaling-stroke" opacity="0.9" /><path d="M30.2 282.1q6.0 -3 12 0t12 0" fill="none" stroke="#B7D0E3" stroke-width="1.8" stroke-linecap="round" stroke-linejoin="round" vector-effect="non-scaling-stroke" opacity="0.9" /><path d="M20.9 278.6q6.0 -3 12 0t12 0" fill="none" stroke="#B7D0E3" stroke-width="1.8" stroke-linecap="round" stroke-linejoin="round" vector-effect="non-scaling-stroke" opacity="0.9" /><path d="M48.1 278.9q6.0 -3 12 0t12 0" fill="none" stroke="#B7D0E3" stroke-width="1.8" stroke-linecap="round" stroke-linejoin="round" vector-effect="non-scaling-stroke" opacity="0.9" /><path d="M43.4 277q6.0 -3 12 0t12 0" fill="none" stroke="#B7D0E3" stroke-width="1.8" stroke-linecap="round" stroke-linejoin="round" vector-effect="non-scaling-stroke" opacity="0.9" /><path d="M28.1 285.7q6.0 -3 12 0t12 0" fill="none" stroke="#B7D0E3" stroke-width="1.8" stroke-linecap="round" stroke-linejoin="round" vector-effect="non-scaling-stroke" opacity="0.9" /><path d="M37 92 L55 92 L52.3 96 L39.7 96Z" fill="#0D2B26" /><path d="M46 92V79.4" fill="none" stroke="#0D2B26" stroke-width="1.6" stroke-linecap="round" stroke-linejoin="round" vector-effect="non-scaling-stroke" /><path d="M46.7 79.8 L54.5 91.1 L46.7 91.1Z" fill="#F26B54" /><path d="M396 356 L412 356 L409.6 359.6 L398.4 359.6Z" fill="#0D2B26" /><path d="M404 356V344.8" fill="none" stroke="#0D2B26" stroke-width="1.6" stroke-linecap="round" stroke-linejoin="round" vector-effect="non-scaling-stroke" /><path d="M404.6 345.2 L411.6 355.2 L404.6 355.2Z" fill="#F4C24D" /><circle cx="400" cy="60" r="20" fill="#F6F4EE" stroke="#B7D0E3" stroke-width="1.4" opacity="0.9"/><path d="M400 42 L405 60 L400 78 L395 60Z" fill="#F26B54" /><path d="M382 60 L400 55 L418 60 L400 65Z" fill="#0D2B26" opacity="0.7" /><circle cx="400" cy="60" r="2.4" fill="#F6F4EE"/><rect x="118.9" y="146" width="2.2" height="4.4" rx="1.5" fill="#8C6A4A"/><path d="M120.3 128.7 L123.1 137.8 L116.2 137.6Z" fill="#2A8A79" /><path d="M119.4 132.6 L126.1 142.7 L114.4 143.2Z" fill="#2A8A79" /><rect x="138.9" y="129.1" width="2.2" height="5.4" rx="1.5" fill="#8C6A4A"/><path d="M139.4 106.8 L144.3 119.1 L136.1 119.6Z" fill="#0E5F52" /><path d="M140.1 113 L145.3 124.8 L133.9 125.7Z" fill="#0E5F52" /><rect x="164.9" y="140.2" width="2.2" height="6.4" rx="1.5" fill="#8C6A4A"/><path d="M166.1 114.1 L169.6 128.1 L161.6 129Z" fill="#B6D3AC" /><path d="M165.4 121 L171.5 135 L161.2 135Z" fill="#B6D3AC" /><rect x="188.9" y="126" width="2.2" height="4.4" rx="1.5" fill="#8C6A4A"/><path d="M189.4 108 L193.7 117.5 L186.9 117.5Z" fill="#2A8A79" /><path d="M190 112.8 L196.3 123.3 L183.7 123.3Z" fill="#2A8A79" /><rect x="212.9" y="139.1" width="2.2" height="5.4" rx="1.5" fill="#8C6A4A"/><path d="M214 116.9 L218.6 129.7 L209.5 129.7Z" fill="#0E5F52" /><path d="M214 123.5 L218.9 134.7 L209 135Z" fill="#0E5F52" /><rect x="242.9" y="120.2" width="2.2" height="6.4" rx="1.5" fill="#8C6A4A"/><path d="M244 94.6 L247.2 108 L240.8 108.3Z" fill="#B6D3AC" /><path d="M244.7 100.3 L249.3 115.1 L239 115.9Z" fill="#B6D3AC" /><rect x="268.9" y="138" width="2.2" height="4.4" rx="1.5" fill="#8C6A4A"/><path d="M270.7 119.2 L273.5 129.6 L266.8 130.4Z" fill="#2A8A79" /><path d="M269.8 124.2 L275.1 135.2 L263.9 134.2Z" fill="#2A8A79" /><rect x="294.9" y="125.1" width="2.2" height="5.4" rx="1.5" fill="#8C6A4A"/><path d="M295.8 102.4 L299.3 115.6 L291.6 114.6Z" fill="#0E5F52" /><path d="M295.8 109.2 L302 121 L291.1 120.7Z" fill="#0E5F52" /><rect x="320.9" y="144.2" width="2.2" height="6.4" rx="1.5" fill="#8C6A4A"/><path d="M321.8 118.2 L326.2 132.3 L318.9 132Z" fill="#B6D3AC" /><path d="M321.3 124.8 L328.1 139.9 L316.1 140.2Z" fill="#B6D3AC" /><rect x="148.9" y="166" width="2.2" height="4.4" rx="1.5" fill="#8C6A4A"/><path d="M149.3 147.8 L154.3 158.4 L145.8 158.6Z" fill="#2A8A79" /><path d="M150.3 153 L156.2 162.2 L145.1 163.4Z" fill="#2A8A79" /><rect x="198.9" y="171.1" width="2.2" height="5.4" rx="1.5" fill="#8C6A4A"/><path d="M200.3 149.1 L204.5 160.6 L196.9 161.8Z" fill="#0E5F52" /><path d="M199.3 155.7 L205.6 167 L195.1 167.7Z" fill="#0E5F52" /><rect x="258.9" y="176.2" width="2.2" height="6.4" rx="1.5" fill="#8C6A4A"/><path d="M259.3 150.7 L263.9 164.3 L256.9 165Z" fill="#B6D3AC" /><path d="M259.3 157.2 L265.9 171.2 L254.6 171.9Z" fill="#B6D3AC" /><rect x="298.9" y="172" width="2.2" height="4.4" rx="1.5" fill="#8C6A4A"/><path d="M299.3 154.2 L304.2 163.7 L296.4 164.4Z" fill="#2A8A79" /><path d="M300.6 158.1 L305.8 168.9 L294.2 168.4Z" fill="#2A8A79" /><rect x="338.9" y="185.1" width="2.2" height="5.4" rx="1.5" fill="#8C6A4A"/><path d="M340.6 162.2 L344 175.3 L336 174.8Z" fill="#0E5F52" /><path d="M340.2 169.5 L345.2 180.3 L335 181Z" fill="#0E5F52" /><path d="M112 300v-44" fill="none" stroke="#2A8A79" stroke-width="2.4" stroke-linecap="round" stroke-linejoin="round" vector-effect="non-scaling-stroke" /><path d="M106 272l6 2M118 262l-6 2" fill="none" stroke="#2A8A79" stroke-width="1.8" stroke-linecap="round" stroke-linejoin="round" vector-effect="non-scaling-stroke" /><path d="M122 300v-44" fill="none" stroke="#2A8A79" stroke-width="2.4" stroke-linecap="round" stroke-linejoin="round" vector-effect="non-scaling-stroke" /><path d="M116 266l6 2M128 258l-6 2" fill="none" stroke="#2A8A79" stroke-width="1.8" stroke-linecap="round" stroke-linejoin="round" vector-effect="non-scaling-stroke" /><path d="M132 300v-44" fill="none" stroke="#2A8A79" stroke-width="2.4" stroke-linecap="round" stroke-linejoin="round" vector-effect="non-scaling-stroke" /><path d="M126 260l6 2M138 254l-6 2" fill="none" stroke="#2A8A79" stroke-width="1.8" stroke-linecap="round" stroke-linejoin="round" vector-effect="non-scaling-stroke" /><path d="M226 318 L226 300 L258 290 L290 300 L290 318Z" fill="#F26B54" /><path d="M218 302 L258 284 L298 302 L290 304 L258 290 L226 304Z" fill="#0D2B26" opacity="0.75" /><path d="M150 240q60 20 120 0t110 10" fill="none" stroke="#3A6FD8" stroke-width="2.6" stroke-linecap="round" stroke-linejoin="round" vector-effect="non-scaling-stroke" opacity="0.8" /><path d="M210 234q10-10 20 0" fill="none" stroke="#8C6A4A" stroke-width="2.6" stroke-linecap="round" stroke-linejoin="round" vector-effect="non-scaling-stroke" /><path d="M330 300q20 20 10 50" fill="none" stroke="#D8C9A6" stroke-width="2.4" stroke-linecap="round" stroke-linejoin="round" vector-effect="non-scaling-stroke" opacity="0.9" stroke-dasharray="5 6"/><path d="M127 357.1 L142.1 332 L151.1 322.9 L157.7 335.7 L171 355.6Z" fill="#B6D3AC" /></svg>
