<svg xmlns="http://www.w3.org/2000/svg" viewBox="0 0 900 240" width="900" height="240" role="img" aria-label="Tandelo 商標與字標"><title>Tandelo 商標與字標</title><style>.l{fill:none;stroke-width:1.9;stroke-linecap:round;stroke-linejoin:round;vector-effect:non-scaling-stroke}</style><g id="mark"><circle cx="90" cy="120" r="70" fill="#F26B54"/><circle cx="174" cy="120" r="70" fill="#1F8C78"/><path d="M132 64A70 70 0 0 1 132 176A70 70 0 0 1 132 64Z" fill="#1D3B28"/></g><g id="wordmark" fill="#EAF1EE" fill-rule="evenodd"><path d="M292 57H378V79H346V165H324V79H292Z"/><path d="M382 124a41 41 0 1 0 82 0a41 41 0 1 0 -82 0ZM404 124a19 19 0 1 1 38 0a19 19 0 1 1 -38 0Z"/><path d="M442 83H464V165H442Z"/><path d="M478 83H500V165H478Z"/><path d="M478 165V122A39 39 0 0 1 556 122V165H534V122A17 17 0 0 0 500 122V165Z"/><path d="M568 124a41 41 0 1 0 82 0a41 41 0 1 0 -82 0ZM590 124a19 19 0 1 1 38 0a19 19 0 1 1 -38 0Z"/><path d="M628 50H650V165H628Z"/><path d="M729.4 155.4A41 41 0 1 1 744 124H722A19 19 0 1 0 715.2 138.6Z"/><path d="M680 119H744V135H680Z"/><path d="M756 50H778V165H756Z"/><path d="M790 124a41 41 0 1 0 82 0a41 41 0 1 0 -82 0ZM812 124a19 19 0 1 1 38 0a19 19 0 1 1 -38 0Z"/></g></svg>
