<svg xmlns="http://www.w3.org/2000/svg" viewBox="0 0 600 450" width="600" height="450" role="img" aria-label="夜裡一個人在書桌前，只有手機的光"><title>夜裡一個人在書桌前，只有手機的光</title><style>.l{fill:none;stroke-width:1.9;stroke-linecap:round;stroke-linejoin:round;vector-effect:non-scaling-stroke}</style><rect x="40" y="30" width="520" height="390" rx="44" fill="#0A463D"/><rect x="340" y="70" width="170" height="150" rx="22" fill="#0E5F52"/><path d="M436 106A30 30 0 1 0 462 150A24 24 0 0 1 436 106Z" fill="#F4C24D"/><circle cx="372" cy="104" r="3" fill="#F6F4EE"/><circle cx="480" cy="188" r="2.5" fill="#F6F4EE"/><circle cx="392" cy="190" r="2" fill="#F6F4EE"/><circle cx="486" cy="100" r="2" fill="#F6F4EE"/><circle cx="122" cy="112" r="26" fill="#F26B54"/><circle class="l" cx="160" cy="112" r="26" stroke="#7ED3C0" stroke-dasharray="3 8"/><path d="M352 268L262 196A38 38 0 0 0 208 236L330 318Z" fill="#DCEFE8" opacity=".14"/><circle cx="232" cy="207" r="35" fill="#2A8272"/><path d="M162 341.4v-21a70 70 0 0 1 140 0v21z" fill="#2A8272"/><g transform="rotate(-14 350 296)"><rect x="328" y="262" width="44" height="68" rx="10" fill="#F6F4EE"/><rect x="333" y="268" width="34" height="50" rx="6" fill="#BFE3D8"/></g><rect x="90" y="332" width="420" height="12" rx="6" fill="#2A8272"/><rect x="400" y="318" width="84" height="14" rx="5" fill="#2A8272"/><rect x="408" y="304" width="68" height="14" rx="5" fill="#0E5F52"/><rect x="404" y="290" width="60" height="14" rx="5" fill="#2A8272"/></svg>
