<svg xmlns="http://www.w3.org/2000/svg" viewBox="0 0 480 360" width="480" height="360" role="img" aria-label="日曆翻到第九天，一張卡片從珊瑚翻向金色"><title>日曆翻到第九天，一張卡片從珊瑚翻向金色</title><style>.l{fill:none;stroke-width:1.9;stroke-linecap:round;stroke-linejoin:round;vector-effect:non-scaling-stroke}</style><rect x="30" y="62" width="224" height="244" rx="22" fill="#FFFFFF"/><path class="l" d="M88 50V74" stroke="#0D2B26"/><path class="l" d="M196 50V74" stroke="#0D2B26"/><rect x="54" y="90" width="76" height="10" rx="5" fill="#0D2B26"/><rect x="138" y="91" width="36" height="8" rx="4" fill="#D9D5CA"/><circle cx="58" cy="146" r="10.5" fill="#0E5F52"/><path class="l" d="M53 147l2.8 2.8l5.2 -5.6" stroke="#FFFFFF"/><circle cx="86" cy="146" r="10.5" fill="#ECE9E1"/><circle cx="114" cy="146" r="10.5" fill="#ECE9E1"/><circle cx="142" cy="146" r="10.5" fill="#ECE9E1"/><circle cx="170" cy="146" r="10.5" fill="#ECE9E1"/><circle cx="198" cy="146" r="10.5" fill="#ECE9E1"/><circle cx="226" cy="146" r="10.5" fill="#ECE9E1"/><circle cx="58" cy="194" r="10.5" fill="#DCEFE8"/><circle cx="86" cy="194" r="10.5" fill="#DCEFE8"/><circle cx="114" cy="194" r="17" fill="#FBEBC0"/><circle cx="114" cy="194" r="11" fill="#F4C24D"/><circle cx="142" cy="194" r="10.5" fill="#DCEFE8"/><circle cx="170" cy="194" r="10.5" fill="#DCEFE8"/><circle cx="198" cy="194" r="10.5" fill="#DCEFE8"/><circle cx="226" cy="194" r="10.5" fill="#ECE9E1"/><circle cx="58" cy="242" r="10.5" fill="#ECE9E1"/><circle cx="86" cy="242" r="10.5" fill="#ECE9E1"/><circle cx="114" cy="242" r="10.5" fill="#ECE9E1"/><circle cx="142" cy="242" r="10.5" fill="#ECE9E1"/><circle cx="170" cy="242" r="10.5" fill="#ECE9E1"/><circle cx="198" cy="242" r="10.5" fill="#ECE9E1"/><circle cx="226" cy="242" r="10.5" fill="#ECE9E1"/><path class="l" d="M58 164C60 190 84 204 100 196" stroke="#0E5F52" stroke-dasharray="2 7"/><g transform="rotate(-10 322 150)"><rect x="268" y="106" width="112" height="86" rx="16" fill="#F26B54"/><rect x="282" y="120" width="42" height="14" rx="7" fill="#0D2B26"/><rect x="282" y="150" width="70" height="7" rx="3.5" fill="#0D2B26"/><rect x="282" y="166" width="48" height="7" rx="3.5" fill="#0D2B26"/></g><g transform="rotate(8 388 244)"><rect x="326" y="196" width="126" height="96" rx="18" fill="#F4C24D"/><rect x="342" y="212" width="46" height="15" rx="7.5" fill="#0D2B26"/><circle cx="430" cy="219" r="9" fill="#0D2B26"/><path class="l" d="M425.4 220l2.5 2.5l4.7 -5" stroke="#F4C24D"/><g transform="translate(343 242) scale(1.625)" stroke="#0D2B26"><path class="l" transform="translate(0 0)" d="M1.5 4.5C4 5 6 12 8.5 12.2M8.5 4.5C6.5 6.5 3.5 10 1.5 12.2"/><path class="l" transform="translate(18 0)" d="M8.5 4L2 8L8.5 12"/><path class="l" transform="translate(36 0)" d="M1.5 8H8.5"/><path class="l" transform="translate(48 0)" d="M2 3C5 1 8.5 2.5 8 5C7.6 7 5.5 7.6 4.5 7.6C9.5 7.6 9.5 14.5 2 13.4"/></g></g><path class="l" d="M398 118C432 128 446 152 436 180" stroke="#0D2B26"/><path class="l" d="M446 166L436 181L422 173" stroke="#0D2B26"/><circle cx="290" cy="300" r="5" fill="#F26B54"/><circle cx="462" cy="120" r="4" fill="#0E5F52"/><circle cx="300" cy="232" r="4" fill="#F4C24D"/></svg>
