<svg xmlns="http://www.w3.org/2000/svg" viewBox="0 0 480 360" width="480" height="360" role="img" aria-label="平板上的白板、四位隊友小格與上方的老師圓"><title>平板上的白板、四位隊友小格與上方的老師圓</title><style>.l{fill:none;stroke-width:1.9;stroke-linecap:round;stroke-linejoin:round;vector-effect:non-scaling-stroke}</style><rect x="28" y="36" width="424" height="292" rx="28" fill="#D9D5CA"/><rect x="38" y="46" width="404" height="272" rx="20" fill="#FFFFFF"/><rect x="50" y="58" width="272" height="196" rx="14" fill="#FBFAF7"/><g transform="translate(70 100) scale(1.75)" stroke="#0D2B26"><path class="l" transform="translate(0 0)" d="M1.5 8H8.5"/><path class="l" transform="translate(12 0)" d="M2 4.5C2.5 1 8 1.5 8 5C8 8 2.5 10.5 2 14H8.5"/><path class="l" transform="translate(24 0)" d="M1.5 4.5C4 5 6 12 8.5 12.2M8.5 4.5C6.5 6.5 3.5 10 1.5 12.2"/><path class="l" transform="translate(42 0)" d="M2 4L8.5 8L2 12"/><path class="l" transform="translate(60 0)" d="M8 2C4 3 2 7 2 10.5C2 15 8.5 15 8.5 10.5C8.5 7 3 7 2 10.5"/></g><rect x="64" y="148" width="122" height="42" rx="12" fill="#FDE7E1"/><g transform="translate(74 156) scale(1.75)" stroke="#0D2B26"><path class="l" transform="translate(0 0)" d="M1.5 4.5C4 5 6 12 8.5 12.2M8.5 4.5C6.5 6.5 3.5 10 1.5 12.2"/><path class="l" transform="translate(18 0)" d="M8.5 4L2 8L8.5 12"/><path class="l" transform="translate(36 0)" d="M1.5 8H8.5"/><path class="l" transform="translate(48 0)" d="M2 3C5 1 8.5 2.5 8 5C7.6 7 5.5 7.6 4.5 7.6C9.5 7.6 9.5 14.5 2 13.4"/></g><path class="l" d="M70 214C100 208 130 220 160 212S210 208 232 214" stroke="#D9D5CA"/><circle class="l" cx="280" cy="92" r="27" stroke="#0E5F52"/><circle cx="280" cy="92" r="20" fill="#0E5F52"/><path class="l" d="M262 126C240 140 214 150 194 162" stroke="#0E5F52" stroke-dasharray="2 7"/><rect x="334" y="58" width="46" height="46" rx="13" fill="#DCEFE8"/><g opacity=".5"><circle cx="357" cy="72.2" r="5.2" fill="#0D2B26"/><path d="M346.5 92.4v-3.1a10.5 10.5 0 0 1 21 0v3.1z" fill="#0D2B26"/></g><rect x="386" y="58" width="46" height="46" rx="13" fill="#F9D3C9"/><g opacity=".5"><circle cx="409" cy="72.2" r="5.2" fill="#0D2B26"/><path d="M398.5 92.4v-3.1a10.5 10.5 0 0 1 21 0v3.1z" fill="#0D2B26"/></g><rect x="334" y="110" width="46" height="46" rx="13" fill="#FBE7B2"/><g opacity=".5"><circle cx="357" cy="124.2" r="5.2" fill="#0D2B26"/><path d="M346.5 144.4v-3.1a10.5 10.5 0 0 1 21 0v3.1z" fill="#0D2B26"/></g><rect x="386" y="110" width="46" height="46" rx="13" fill="#C9DDF8"/><g opacity=".5"><circle cx="409" cy="124.2" r="5.2" fill="#0D2B26"/><path d="M398.5 144.4v-3.1a10.5 10.5 0 0 1 21 0v3.1z" fill="#0D2B26"/></g><rect x="334" y="164" width="98" height="90" rx="14" fill="#DCEFE8"/><g><circle cx="347.8" cy="182" r="7" fill="#F26B54"/><circle cx="356.2" cy="182" r="7" fill="#0E5F52"/><path d="M352 176.4A7 7 0 0 1 352 187.6A7 7 0 0 1 352 176.4Z" fill="#0D281B"/></g><rect x="368" y="178" width="50" height="7" rx="3.5" fill="#0E5F52"/><rect x="346" y="204" width="74" height="7" rx="3.5" fill="#5E6B67"/><rect x="346" y="220" width="56" height="7" rx="3.5" fill="#5E6B67"/><rect x="50" y="270" width="36.2" height="16" rx="8" fill="#0E5F52"/><rect x="90.2" y="270" width="72.4" height="16" rx="8" fill="#0E5F52"/><rect x="166.6" y="270" width="72.4" height="16" rx="8" fill="#F26B54"/><rect x="243" y="270" width="36.2" height="16" rx="8" fill="#FDE7E1"/><rect x="283.2" y="270" width="108.6" height="16" rx="8" fill="#FDE7E1"/><rect x="395.8" y="270" width="36.2" height="16" rx="8" fill="#FDE7E1"/><rect x="50" y="294" width="382" height="12" rx="6" fill="#FBFAF7"/><circle cx="60" cy="300" r="3" fill="#0E5F52"/><rect x="70" y="297" width="40" height="6" rx="3" fill="#D9D5CA"/></svg>
